<svg width="80" height="80" viewBox="0 0 80 80" fill="none" xmlns="http://www.w3.org/2000/svg">
<circle cx="40" cy="40" r="40" fill="#F6F6F6"/>
<path d="M55.524 30.5827C54.4107 31.076 53.2147 31.4094 51.9573 31.56C53.2547 30.7837 54.2253 29.562 54.688 28.1227C53.4691 28.8467 52.1351 29.3563 50.744 29.6294C49.8085 28.6305 48.5694 27.9685 47.2191 27.746C45.8688 27.5235 44.4828 27.7531 43.2763 28.399C42.0698 29.045 41.1104 30.0712 40.5469 31.3183C39.9834 32.5654 39.8474 33.9637 40.16 35.296C37.6902 35.172 35.2742 34.5301 33.0686 33.4119C30.863 32.2937 28.9171 30.7242 27.3573 28.8054C26.824 29.7254 26.5173 30.792 26.5173 31.928C26.5167 32.9507 26.7686 33.9577 27.2505 34.8597C27.7324 35.7617 28.4295 36.5307 29.28 37.0987C28.2937 37.0673 27.3292 36.8008 26.4667 36.3214V36.4014C26.4666 37.8357 26.9627 39.2259 27.8709 40.336C28.7791 41.4462 30.0434 42.2079 31.4493 42.492C30.5344 42.7396 29.5751 42.7761 28.644 42.5987C29.0407 43.8328 29.8133 44.9121 30.8538 45.6853C31.8943 46.4585 33.1506 46.8869 34.4467 46.9107C32.2464 48.6379 29.5292 49.5748 26.732 49.5707C26.2365 49.5708 25.7414 49.5419 25.2493 49.484C28.0886 51.3096 31.3938 52.2784 34.7693 52.2747C46.196 52.2747 52.4427 42.8107 52.4427 34.6027C52.4427 34.336 52.436 34.0667 52.424 33.8C53.6391 32.9213 54.6879 31.8332 55.5213 30.5867L55.524 30.5827V30.5827Z" fill="black"/>
</svg>
