<svg width="80" height="80" viewBox="0 0 80 80" fill="none" xmlns="http://www.w3.org/2000/svg">
<circle cx="40" cy="40" r="40" fill="#F6F6F6"/>
<path d="M52.5477 34.1115C52.533 33.0069 52.3262 31.9134 51.9367 30.8798C51.5988 30.0079 51.0829 29.2161 50.4217 28.555C49.7605 27.8938 48.9687 27.3778 48.0969 27.04C47.0765 26.657 45.9986 26.4499 44.909 26.4275C43.506 26.3648 43.0612 26.3473 39.5 26.3473C35.9387 26.3473 35.4823 26.3473 34.0896 26.4275C33.0004 26.45 31.923 26.6571 30.9031 27.04C30.0311 27.3776 29.2392 27.8935 28.578 28.5547C27.9168 29.2159 27.4009 30.0078 27.0633 30.8798C26.6795 31.8994 26.4729 32.977 26.4523 34.0662C26.3896 35.4706 26.3706 35.9154 26.3706 39.4767C26.3706 43.0379 26.3706 43.4929 26.4523 44.8871C26.4742 45.9779 26.6798 47.0542 27.0633 48.0765C27.4015 48.9482 27.9178 49.7398 28.5792 50.4007C29.2406 51.0616 30.0326 51.5773 30.9046 51.9148C31.9217 52.3132 32.9993 52.5351 34.091 52.571C35.4954 52.6337 35.9402 52.6527 39.5015 52.6527C43.0627 52.6527 43.5192 52.6527 44.9119 52.571C46.0015 52.5496 47.0795 52.343 48.0998 51.96C48.9714 51.6218 49.763 51.1057 50.4241 50.4446C51.0853 49.7835 51.6014 48.9918 51.9396 48.1202C52.3231 47.0994 52.5287 46.0231 52.5506 44.9308C52.6133 43.5279 52.6323 43.0831 52.6323 39.5204C52.6294 35.9592 52.6294 35.5071 52.5477 34.1115V34.1115ZM39.4912 46.2112C35.7667 46.2112 32.7494 43.194 32.7494 39.4694C32.7494 35.7448 35.7667 32.7275 39.4912 32.7275C41.2793 32.7275 42.9941 33.4378 44.2585 34.7021C45.5228 35.9665 46.2331 37.6813 46.2331 39.4694C46.2331 41.2574 45.5228 42.9723 44.2585 44.2366C42.9941 45.5009 41.2793 46.2112 39.4912 46.2112V46.2112ZM46.5015 34.0502C46.295 34.0504 46.0904 34.0099 45.8996 33.9309C45.7088 33.852 45.5354 33.7362 45.3894 33.5902C45.2434 33.4442 45.1276 33.2708 45.0486 33.08C44.9697 32.8891 44.9292 32.6846 44.9294 32.4781C44.9294 32.2718 44.97 32.0674 45.049 31.8768C45.128 31.6861 45.2437 31.5129 45.3896 31.367C45.5355 31.2211 45.7087 31.1054 45.8994 31.0264C46.09 30.9474 46.2944 30.9068 46.5007 30.9068C46.7071 30.9068 46.9114 30.9474 47.1021 31.0264C47.2927 31.1054 47.4659 31.2211 47.6118 31.367C47.7578 31.5129 47.8735 31.6861 47.9525 31.8768C48.0314 32.0674 48.0721 32.2718 48.0721 32.4781C48.0721 33.3473 47.3692 34.0502 46.5015 34.0502Z" fill="black"/>
<path d="M39.4913 43.8487C41.9099 43.8487 43.8706 41.888 43.8706 39.4693C43.8706 37.0507 41.9099 35.09 39.4913 35.09C37.0726 35.09 35.1119 37.0507 35.1119 39.4693C35.1119 41.888 37.0726 43.8487 39.4913 43.8487Z" fill="black"/>
</svg>
